<svg width="253" height="36" viewBox="0 0 253 36" fill="none" xmlns="http://www.w3.org/2000/svg">
<path d="M43.95 28V13.12H47.34L47.64 15.64C48.1 14.76 48.76 14.06 49.62 13.54C50.5 13.02 51.53 12.76 52.71 12.76C54.55 12.76 55.98 13.34 57 14.5C58.02 15.66 58.53 17.36 58.53 19.6V28H54.69V19.96C54.69 18.68 54.43 17.7 53.91 17.02C53.39 16.34 52.58 16 51.48 16C50.4 16 49.51 16.38 48.81 17.14C48.13 17.9 47.79 18.96 47.79 20.32V28H43.95ZM70.782 28.36C68.922 28.36 67.482 27.78 66.462 26.62C65.462 25.46 64.962 23.76 64.962 21.52V13.12H68.772V21.16C68.772 22.44 69.032 23.42 69.552 24.1C70.072 24.78 70.892 25.12 72.012 25.12C73.072 25.12 73.942 24.74 74.622 23.98C75.322 23.22 75.672 22.16 75.672 20.8V13.12H79.512V28H76.122L75.822 25.48C75.362 26.36 74.692 27.06 73.812 27.58C72.952 28.1 71.942 28.36 70.782 28.36ZM85.0439 28L90.4439 20.56L85.0439 13.12H89.1539L92.9339 18.4L96.6839 13.12H100.824L95.3939 20.56L100.824 28H96.6839L92.9339 22.72L89.1539 28H85.0439ZM112.9 28C111.34 28 110.09 27.62 109.15 26.86C108.21 26.1 107.74 24.75 107.74 22.81V16.33H105.19V13.12H107.74L108.19 9.13H111.58V13.12H115.6V16.33H111.58V22.84C111.58 23.56 111.73 24.06 112.03 24.34C112.35 24.6 112.89 24.73 113.65 24.73H115.51V28H112.9ZM120.637 31.33L128.137 4.69H131.887L124.357 31.33H120.637Z" fill="#003C3C"/>
<path d="M137.524 28V13.12H140.914L141.244 15.13C141.724 14.41 142.354 13.84 143.134 13.42C143.934 12.98 144.854 12.76 145.894 12.76C148.194 12.76 149.824 13.65 150.784 15.43C151.324 14.61 152.044 13.96 152.944 13.48C153.864 13 154.864 12.76 155.944 12.76C157.884 12.76 159.374 13.34 160.414 14.5C161.454 15.66 161.974 17.36 161.974 19.6V28H158.134V19.96C158.134 18.68 157.884 17.7 157.384 17.02C156.904 16.34 156.154 16 155.134 16C154.094 16 153.254 16.38 152.614 17.14C151.994 17.9 151.684 18.96 151.684 20.32V28H147.844V19.96C147.844 18.68 147.594 17.7 147.094 17.02C146.594 16.34 145.824 16 144.784 16C143.764 16 142.934 16.38 142.294 17.14C141.674 17.9 141.364 18.96 141.364 20.32V28H137.524ZM173.75 28.36C172.47 28.36 171.42 28.16 170.6 27.76C169.78 27.34 169.17 26.79 168.77 26.11C168.37 25.43 168.17 24.68 168.17 23.86C168.17 22.48 168.71 21.36 169.79 20.5C170.87 19.64 172.49 19.21 174.65 19.21H178.43V18.85C178.43 17.83 178.14 17.08 177.56 16.6C176.98 16.12 176.26 15.88 175.4 15.88C174.62 15.88 173.94 16.07 173.36 16.45C172.78 16.81 172.42 17.35 172.28 18.07H168.53C168.63 16.99 168.99 16.05 169.61 15.25C170.25 14.45 171.07 13.84 172.07 13.42C173.07 12.98 174.19 12.76 175.43 12.76C177.55 12.76 179.22 13.29 180.44 14.35C181.66 15.41 182.27 16.91 182.27 18.85V28H179L178.64 25.6C178.2 26.4 177.58 27.06 176.78 27.58C176 28.1 174.99 28.36 173.75 28.36ZM174.62 25.36C175.72 25.36 176.57 25 177.17 24.28C177.79 23.56 178.18 22.67 178.34 21.61H175.07C174.05 21.61 173.32 21.8 172.88 22.18C172.44 22.54 172.22 22.99 172.22 23.53C172.22 24.11 172.44 24.56 172.88 24.88C173.32 25.2 173.9 25.36 174.62 25.36ZM188.934 34.6V13.12H192.354L192.774 15.25C193.254 14.59 193.884 14.01 194.664 13.51C195.464 13.01 196.494 12.76 197.754 12.76C199.154 12.76 200.404 13.1 201.504 13.78C202.604 14.46 203.474 15.39 204.114 16.57C204.754 17.75 205.074 19.09 205.074 20.59C205.074 22.09 204.754 23.43 204.114 24.61C203.474 25.77 202.604 26.69 201.504 27.37C200.404 28.03 199.154 28.36 197.754 28.36C196.634 28.36 195.654 28.15 194.814 27.73C193.974 27.31 193.294 26.72 192.774 25.96V34.6H188.934ZM196.944 25C198.164 25 199.174 24.59 199.974 23.77C200.774 22.95 201.174 21.89 201.174 20.59C201.174 19.29 200.774 18.22 199.974 17.38C199.174 16.54 198.164 16.12 196.944 16.12C195.704 16.12 194.684 16.54 193.884 17.38C193.104 18.2 192.714 19.26 192.714 20.56C192.714 21.86 193.104 22.93 193.884 23.77C194.684 24.59 195.704 25 196.944 25Z" fill="#00BB6F"/>
<rect y="3" width="30" height="30" rx="6" fill="#002E3B"/>
<path d="M25.2253 3H4.77428C2.14172 3 0 5.14186 0 7.77442V28.2256C0 30.8581 2.14172 32.9999 4.77428 32.9999H25.2253C27.858 32.9999 29.9999 30.8581 29.9999 28.2256V7.77442C30 5.14186 27.858 3 25.2253 3ZM18.7668 9.65358C18.7668 7.12831 20.8213 5.07397 23.3463 5.07397C25.8715 5.07397 27.9259 7.12831 27.9259 9.65358C27.9259 11.3157 25.3811 15.3689 23.3463 18.1711C21.3117 15.3689 18.7668 11.3157 18.7668 9.65358ZM2.07397 7.77442C2.07397 6.28545 3.28531 5.07397 4.77428 5.07397H18.5265C17.3916 6.26789 16.6928 7.88019 16.6928 9.65358C16.6928 10.6843 17.2301 12.0916 17.9795 13.5539L14.2677 17.2657C14.2673 17.266 14.267 17.2663 14.2666 17.2667C14.2662 17.2671 14.2659 17.2674 14.2656 17.2678L2.27874 29.2547C2.14739 28.9372 2.07397 28.5899 2.07397 28.2257V7.77442V7.77442ZM4.77428 30.926C4.40995 30.926 4.06277 30.8526 3.74532 30.7213L14.9999 19.4668L26.2544 30.7213C25.9369 30.8526 25.5896 30.926 25.2253 30.926H4.77428ZM27.926 28.2256C27.926 28.5899 27.8526 28.9371 27.7213 29.2545L16.4668 17.9999L19.0323 15.4346C20.5103 17.8936 22.201 20.1162 22.5251 20.5369C22.7215 20.7918 23.0248 20.9411 23.3466 20.9411C23.6683 20.9411 23.9717 20.7918 24.168 20.5369C24.5116 20.0908 26.392 17.6187 27.9262 14.9869V28.2256H27.926Z" fill="#00BB6F"/>
<path d="M8.84374 16.5846C11.6103 16.5846 13.8609 14.3339 13.8609 11.5674C13.8609 10.9947 13.3968 10.5304 12.824 10.5304H8.84374C8.27091 10.5304 7.80675 10.9947 7.80675 11.5674C7.80675 12.14 8.27091 12.6043 8.84374 12.6043H11.5984C11.1782 13.7171 10.1018 14.5106 8.84374 14.5106C7.22092 14.5106 5.90063 13.1903 5.90063 11.5674C5.90063 9.94454 7.22092 8.62425 8.84374 8.62425C9.62963 8.62425 10.3688 8.93037 10.9249 9.48619C11.33 9.89103 11.9865 9.89103 12.3915 9.48591C12.7963 9.08094 12.7962 8.42432 12.3912 8.01948C11.4435 7.07209 10.1835 6.55042 8.84374 6.55042C6.07733 6.55042 3.82666 8.80109 3.82666 11.5675C3.82666 14.3339 6.07733 16.5846 8.84374 16.5846Z" fill="#80EEC0"/>
</svg>
